<svg xmlns="http://www.w3.org/2000/svg" width="1600" height="900" viewBox="0 0 1600 900" role="img" aria-label="SDD Delivery workflow diagram">
  <defs><marker id="arrow" markerWidth="12" markerHeight="12" refX="10" refY="6" orient="auto"><path d="M0 0L12 6L0 12z" fill="#2563eb"/></marker><filter id="shadow"><feDropShadow dx="0" dy="8" stdDeviation="12" flood-color="#1e3a8a" flood-opacity="0.12"/></filter></defs>
  <rect width="1600" height="900" rx="28" fill="#f8fbff"/>
  <g opacity="0.35" stroke="#dbeafe"><path d="M0 80H1600M0 160H1600M0 240H1600M0 320H1600M0 400H1600M0 480H1600M0 560H1600M0 640H1600M0 720H1600M0 800H1600"/><path d="M80 0V900M160 0V900M240 0V900M320 0V900M400 0V900M480 0V900M560 0V900M640 0V900M720 0V900M800 0V900M880 0V900M960 0V900M1040 0V900M1120 0V900M1200 0V900M1280 0V900M1360 0V900M1440 0V900M1520 0V900"/></g>
  <text x="130" y="100" font-family="Inter, Segoe UI, Arial" font-size="72" font-weight="850" fill="#1d4ed8">SDD Delivery Workflow</text>
  <text x="132" y="158" font-family="Inter, Segoe UI, Arial" font-size="28" fill="#334155">PRD → Spec → Review → Solution → Code → Tests → Observable Delivery</text>
  <g font-family="Inter, Segoe UI, Arial" font-size="18" text-anchor="middle">
    <g transform="translate(70 250)">
      <g id="card"><rect width="130" height="150" rx="20" fill="#fff" stroke="#bfdbfe" filter="url(#shadow)"/><circle cx="28" cy="28" r="20" fill="#2563eb"/><text x="28" y="35" fill="#fff" font-weight="800">1</text></g><text x="65" y="95" font-weight="800" fill="#0f172a">PRD</text><text x="65" y="123" fill="#334155">Intake</text>
    </g>
    <path d="M205 325H255" stroke="#2563eb" stroke-width="5" marker-end="url(#arrow)"/>
    <g transform="translate(260 250)"><use href="#card"/><text x="28" y="35" fill="#fff" font-weight="800">2</text><text x="65" y="95" font-weight="800" fill="#0f172a">Spec</text><text x="65" y="123" fill="#334155">Authoring</text></g>
    <path d="M395 325H445" stroke="#2563eb" stroke-width="5" marker-end="url(#arrow)"/>
    <g transform="translate(450 240)"><path d="M80 0L160 80L80 160L0 80z" fill="#fff" stroke="#2563eb" stroke-width="3" filter="url(#shadow)"/><circle cx="35" cy="35" r="20" fill="#2563eb"/><text x="35" y="42" fill="#fff" font-weight="800">3</text><text x="80" y="82" font-weight="800" fill="#0f172a">Spec</text><text x="80" y="110" fill="#334155">Review Gate</text></g>
    <path d="M615 325H665" stroke="#2563eb" stroke-width="5" marker-end="url(#arrow)"/>
    <g transform="translate(670 250)"><use href="#card"/><text x="28" y="35" fill="#fff" font-weight="800">4</text><text x="65" y="88" font-weight="800" fill="#0f172a">Trace</text><text x="65" y="116" fill="#334155">Matrix</text></g>
    <path d="M805 325H855" stroke="#2563eb" stroke-width="5" marker-end="url(#arrow)"/>
    <g transform="translate(860 250)"><use href="#card"/><text x="28" y="35" fill="#fff" font-weight="800">5</text><text x="65" y="88" font-weight="800" fill="#0f172a">Technical</text><text x="65" y="116" fill="#334155">Solution</text></g>
    <path d="M995 325H1045" stroke="#2563eb" stroke-width="5" marker-end="url(#arrow)"/>
    <g transform="translate(1050 240)"><path d="M80 0L160 80L80 160L0 80z" fill="#fff" stroke="#16a34a" stroke-width="3" filter="url(#shadow)"/><circle cx="35" cy="35" r="20" fill="#16a34a"/><text x="35" y="42" fill="#fff" font-weight="800">6</text><text x="80" y="82" font-weight="800" fill="#0f172a">Solution</text><text x="80" y="110" fill="#334155">Review Gate</text></g>
    <path d="M1215 325C1350 330 1380 430 1240 505" stroke="#2563eb" fill="none" stroke-width="5" marker-end="url(#arrow)"/>
    <g transform="translate(170 520)"><use href="#card"/><text x="28" y="35" fill="#fff" font-weight="800">7</text><text x="65" y="90" font-weight="800" fill="#0f172a">Tasks</text></g>
    <path d="M305 595H355" stroke="#2563eb" stroke-width="5" marker-end="url(#arrow)"/>
    <g transform="translate(360 520)"><use href="#card"/><text x="28" y="35" fill="#fff" font-weight="800">8</text><text x="65" y="90" font-weight="800" fill="#0f172a">Code</text></g>
    <path d="M495 595H545" stroke="#2563eb" stroke-width="5" marker-end="url(#arrow)"/>
    <g transform="translate(550 520)"><use href="#card"/><text x="28" y="35" fill="#fff" font-weight="800">9</text><text x="65" y="88" font-weight="800" fill="#0f172a">Unit Test</text><text x="65" y="116" fill="#334155">Plan</text></g>
    <path d="M685 595H735" stroke="#2563eb" stroke-width="5" marker-end="url(#arrow)"/>
    <g transform="translate(740 520)"><use href="#card"/><text x="28" y="35" fill="#fff" font-weight="800">10</text><text x="65" y="88" font-weight="800" fill="#0f172a">Unit Test</text><text x="65" y="116" fill="#334155">Report</text></g>
    <path d="M875 595H925" stroke="#2563eb" stroke-width="5" marker-end="url(#arrow)"/>
    <g transform="translate(930 520)"><use href="#card"/><text x="28" y="35" fill="#fff" font-weight="800">11</text><text x="65" y="88" font-weight="800" fill="#0f172a">Delivery</text><text x="65" y="116" fill="#334155">Review</text></g>
    <path d="M1065 595H1115" stroke="#2563eb" stroke-width="5" marker-end="url(#arrow)"/>
    <g transform="translate(1120 500)"><rect width="330" height="210" rx="24" fill="#fff" stroke="#bfdbfe" filter="url(#shadow)"/><circle cx="34" cy="34" r="20" fill="#2563eb"/><text x="34" y="41" fill="#fff" font-weight="800">12</text><text x="170" y="48" font-size="24" font-weight="800" fill="#0f172a">Checkpoint &amp; Observability</text><rect x="28" y="78" width="125" height="92" rx="16" fill="#f0fdf4"/><text x="90" y="130" font-size="28" font-weight="800" fill="#16a34a">87.6%</text><rect x="175" y="78" width="125" height="92" rx="16" fill="#eff6ff"/><text x="238" y="130" font-size="22" font-weight="800" fill="#2563eb">Gates ✓</text></g>
  </g>
</svg>
