<svg xmlns="http://www.w3.org/2000/svg" width="1600" height="900" viewBox="0 0 1600 900" role="img" aria-label="SDD Delivery hero">
  <defs>
    <linearGradient id="bg" x1="0" y1="0" x2="1" y2="1"><stop offset="0" stop-color="#f8fbff"/><stop offset="1" stop-color="#eef7ff"/></linearGradient>
    <linearGradient id="blue" x1="0" y1="0" x2="1" y2="1"><stop offset="0" stop-color="#1d4ed8"/><stop offset="1" stop-color="#38bdf8"/></linearGradient>
    <filter id="shadow" x="-20%" y="-20%" width="140%" height="140%"><feDropShadow dx="0" dy="12" stdDeviation="18" flood-color="#1e3a8a" flood-opacity="0.16"/></filter>
  </defs>
  <rect width="1600" height="900" rx="36" fill="url(#bg)"/>
  <g opacity="0.35" stroke="#93c5fd" stroke-width="1">
    <path d="M0 110H1600M0 210H1600M0 310H1600M0 410H1600M0 510H1600M0 610H1600M0 710H1600M0 810H1600"/>
    <path d="M120 0V900M240 0V900M360 0V900M480 0V900M600 0V900M720 0V900M840 0V900M960 0V900M1080 0V900M1200 0V900M1320 0V900M1440 0V900"/>
  </g>
  <g transform="translate(140 150)">
    <g filter="url(#shadow)">
      <path d="M145 0l125 72v144l-125 72-125-72V72z" fill="url(#blue)"/>
      <path d="M145 45l78 45v90l-78 45-78-45V90z" fill="#fff" opacity="0.96"/>
      <path d="M105 145l32 32 70-82" fill="none" stroke="#16a34a" stroke-width="18" stroke-linecap="round" stroke-linejoin="round"/>
    </g>
    <text x="340" y="96" font-family="Inter, Segoe UI, Arial, sans-serif" font-size="92" font-weight="800" fill="#0f172a">SDD Delivery</text>
    <text x="345" y="168" font-family="Inter, Segoe UI, Arial, sans-serif" font-size="34" font-weight="500" fill="#334155">PRD-driven, Spec-first delivery workflow for AI coding agents</text>
    <g transform="translate(345 225)" font-family="Inter, Segoe UI, Arial, sans-serif" font-size="26" font-weight="700">
      <rect x="0" y="0" width="170" height="62" rx="16" fill="#ecfdf5" stroke="#22c55e"/><text x="52" y="40" fill="#15803d">Traceable</text>
      <rect x="200" y="0" width="220" height="62" rx="16" fill="#eff6ff" stroke="#2563eb"/><text x="252" y="40" fill="#1d4ed8">Review-Gated</text>
      <rect x="450" y="0" width="190" height="62" rx="16" fill="#f5f3ff" stroke="#7c3aed"/><text x="502" y="40" fill="#5b21b6">Observable</text>
    </g>
  </g>
  <g transform="translate(120 590)" font-family="Inter, Segoe UI, Arial, sans-serif">
    <g fill="#fff" stroke="#bfdbfe" filter="url(#shadow)">
      <rect x="0" y="0" width="320" height="130" rx="24"/><rect x="370" y="0" width="320" height="130" rx="24"/><rect x="740" y="0" width="320" height="130" rx="24"/><rect x="1110" y="0" width="320" height="130" rx="24"/>
    </g>
    <text x="92" y="54" font-size="28" font-weight="800" fill="#0f172a">Spec-Driven</text><text x="92" y="88" font-size="20" fill="#475569">Clarity from PRD to code</text>
    <text x="462" y="54" font-size="28" font-weight="800" fill="#0f172a">Full Traceability</text><text x="462" y="88" font-size="20" fill="#475569">Requirements to tests</text>
    <text x="832" y="54" font-size="28" font-weight="800" fill="#0f172a">Quality Gates</text><text x="832" y="88" font-size="20" fill="#475569">Reviews at key stages</text>
    <text x="1202" y="54" font-size="28" font-weight="800" fill="#0f172a">Observable</text><text x="1202" y="88" font-size="20" fill="#475569">Checkpoint-safe delivery</text>
  </g>
</svg>
